<svg width="1239" height="202" viewBox="0 0 1239 202" fill="none" xmlns="http://www.w3.org/2000/svg">
<path d="M527.938 0.00488331C528.669 0.00358544 529.4 0.00228756 530.154 0.000950363C565.102 -0.0458642 599.76 1.62013 634.073 8.71924C636.963 9.30973 639.857 9.85481 642.758 10.3838C659.467 13.4347 675.76 17.344 692 22.3174C693.732 22.8453 693.732 22.8453 695.5 23.3838C697.574 24.0194 699.646 24.6591 701.717 25.3042C703.75 25.9315 705.785 26.5484 707.826 27.1487C717.346 29.977 726.599 33.4108 735.875 36.9424C736.69 37.2517 737.505 37.5611 738.344 37.8798C760.432 46.2802 781.787 55.9081 803 66.3174C804.05 66.8312 805.099 67.3451 806.181 67.8745C809.311 69.411 812.438 70.9559 815.562 72.5049C816.933 73.1804 816.933 73.1804 818.332 73.8696C819.685 74.5457 819.685 74.5457 821.066 75.2354C822.005 75.7011 822.945 76.1669 823.912 76.6467C826.237 77.9044 828.365 79.192 830.557 80.6501C840.604 87.1646 848.723 88.5424 860.601 88.308C863.479 88.2529 866.353 88.2553 869.231 88.2717C873.232 88.2937 877.231 88.3005 881.231 88.2959C889.747 88.3065 898.245 88.6029 906.75 89.0049C907.576 89.0438 908.401 89.0826 909.252 89.1227C951.29 91.1886 993.287 95.5468 1034.72 102.917C1038.37 103.558 1042.02 104.162 1045.67 104.767C1055.62 106.426 1065.49 108.141 1075.31 110.46C1079.67 111.474 1084.05 112.424 1088.43 113.368C1142.33 125.015 1198.97 137.748 1239 178.317C1238.67 178.977 1238.34 179.637 1238 180.317C1237.44 179.712 1236.88 179.106 1236.3 178.481C1215.21 156.441 1186.62 145.148 1158 136.317C1156.75 135.929 1155.5 135.541 1154.2 135.141C1143.86 131.988 1133.45 129.488 1122.88 127.255C1121.25 126.906 1119.62 126.558 1117.99 126.209C1107.43 123.966 1096.85 121.931 1086.2 120.204C1082.12 119.538 1078.09 118.73 1074.05 117.896C1065.08 116.085 1056.06 114.684 1047 113.38C1046.11 113.251 1045.22 113.123 1044.3 112.991C1029.41 110.865 1014.49 109.276 999.5 108.005C998.56 107.924 997.62 107.843 996.651 107.759C967.793 105.307 938.984 105.156 910.043 105.187C904.759 105.193 899.475 105.189 894.191 105.183C890.044 105.18 885.897 105.181 881.75 105.183C879.723 105.184 877.695 105.184 875.667 105.183C866.098 105.181 856.553 105.208 846.998 105.766C846.324 105.803 845.649 105.84 844.954 105.877C841.955 106.043 838.967 106.242 835.976 106.512C825.296 107.187 817.17 102.33 808.676 96.2119C803.38 92.5241 797.938 89.3563 792.25 86.3174C790.913 85.5947 790.913 85.5947 789.549 84.8574C757.372 67.5603 724.517 53.6947 689.946 41.9777C687.972 41.3078 686 40.6322 684.028 39.9565C676.997 37.5624 669.981 35.3941 662.75 33.6924C661.031 33.2767 659.312 32.8601 657.594 32.4424C656.795 32.249 655.995 32.0557 655.172 31.8564C652.513 31.1964 649.882 30.4534 647.25 29.6924C641.48 28.0814 635.6 27.0657 629.711 26.001C626.954 25.493 624.23 24.9502 621.5 24.3174C603.087 20.1528 584.406 17.9389 565.625 16.1924C564.82 16.1169 564.015 16.0414 563.185 15.9636C560.458 15.7234 557.73 15.5148 555 15.3174C553.78 15.2291 552.559 15.1408 551.302 15.0498C537.338 14.1212 523.365 14.0741 509.375 14.0674C508.099 14.0667 506.822 14.066 505.507 14.0653C461.701 14.1019 418.826 18.8699 375.747 26.6538C371.699 27.3707 367.646 28.0497 363.59 28.7197C345.599 31.7029 327.764 35.1379 309.948 39.0298C302.915 40.5627 295.864 42.001 288.812 43.4424C280.254 45.2029 271.709 47.0101 263.188 48.9424C262.384 49.1243 261.58 49.3062 260.751 49.4937C247.021 52.6475 233.39 56.233 219.75 59.7549C209.133 62.4944 198.515 65.2289 187.86 67.821C184.924 68.543 182.061 69.2953 179.216 70.3245C175.703 71.409 172.476 71.8293 168.816 72.1768C168.11 72.2463 167.403 72.3159 166.675 72.3875C165.126 72.5394 163.577 72.6883 162.027 72.8345C157.672 73.246 153.318 73.6815 148.965 74.1143C147.548 74.2543 147.548 74.2543 146.103 74.3971C135.111 75.491 124.133 76.713 113.154 77.9276C95.8851 79.8351 78.6136 81.7164 61.3242 83.4307C59.5926 83.6025 57.8612 83.776 56.1299 83.9512C47.7352 84.7978 39.4502 85.5377 31 85.3174C31 84.9874 31 84.6574 31 84.3174C47.8292 82.1406 64.6656 80.0858 81.5391 78.2822C82.7082 78.1572 82.7082 78.1572 83.9009 78.0296C90.2838 77.3478 96.6673 76.6728 103.051 75.9987C128.759 73.3065 128.759 73.3065 154.388 69.9592C157.338 69.5354 160.282 69.1687 163.246 68.8728C172.804 67.9029 181.576 65.6792 190.705 62.8085C194.758 61.5343 198.825 60.3037 202.891 59.0674C203.686 58.8243 204.481 58.5812 205.301 58.3307C211.598 56.4143 217.929 54.6764 224.312 53.0674C231.891 51.1556 239.386 49.0539 246.875 46.8174C256.214 44.0362 265.604 41.6278 275.101 39.4463C280.35 38.233 285.528 36.8981 290.699 35.3838C298.629 33.0848 306.635 31.248 314.688 29.4424C316.232 29.0933 317.777 28.7439 319.322 28.3943C323.167 27.5252 327.013 26.6611 330.859 25.7984C334.041 25.0834 337.222 24.3621 340.402 23.6416C363.615 18.4056 386.898 13.8783 410.366 9.94287C412.878 9.51057 415.386 9.05982 417.892 8.59424C428.525 6.61879 439.181 5.21259 449.928 4.00977C452.734 3.69416 455.539 3.36565 458.344 3.03613C481.503 0.369908 504.648 0.0390017 527.938 0.00488331Z" fill="#F0D227"/>
<path d="M539.726 22.1321C542.863 22.1299 546 22.1117 549.137 22.0928C561.234 22.0603 573.016 22.6458 585 24.3174C585 24.6474 585 24.9774 585 25.3174C583.263 25.355 583.263 25.355 581.49 25.3934C577.114 25.4889 572.738 25.5887 568.362 25.6897C566.483 25.7326 564.603 25.7743 562.724 25.8147C545.393 26.1895 528.365 26.9147 511.25 29.8174C510.487 29.9452 509.725 30.0729 508.939 30.2045C482.452 34.6854 456.356 41.4475 431 50.3174C429.947 50.6842 428.893 51.0509 427.808 51.4288C414.351 56.1582 401.147 61.4015 388.062 67.0674C387.442 67.3358 386.821 67.6041 386.182 67.8805C377.985 71.4363 369.95 75.2402 362 79.3174C362 79.6474 362 79.9774 362 80.3174C365.989 80.9625 369.978 81.6007 373.969 82.2339C375.947 82.549 377.924 82.8686 379.9 83.1885C406.051 87.3649 432.255 90.1427 458.64 92.2569C461.7 92.504 464.759 92.7588 467.819 93.0137C484.786 94.4254 501.755 95.6905 518.754 96.6649C524.882 97.0235 530.917 97.5138 537 98.3174C539.368 98.4749 541.738 98.6058 544.109 98.712C545.494 98.7784 546.879 98.8454 548.264 98.9129C549.355 98.9652 549.355 98.9652 550.469 99.0186C566.108 99.7819 581.669 101.031 597.255 102.518C613.549 104.068 629.849 105.272 646.186 106.278C654.955 106.828 663.61 107.6 672.324 108.76C683.567 110.169 694.899 110.927 706.188 111.88C708.799 112.103 711.41 112.326 714.021 112.55C725.345 113.516 736.668 114.461 748 115.317C734.634 109.027 720.209 105.879 705.833 102.73C697.409 100.864 689.567 98.9697 683.375 92.6299C681.473 88.0488 680.973 84.1969 682 79.3174C683.887 75.8962 686.245 73.0721 689 70.3174C719.313 72.9104 762.595 83.8396 783.34 108.048C785 110.317 785 110.317 785 111.317C783.819 111.366 782.638 111.415 781.422 111.466C779.865 111.541 778.307 111.616 776.75 111.692C775.973 111.723 775.195 111.754 774.395 111.786C768.926 112.044 768.926 112.044 764 114.317C764 115.307 764 116.297 764 117.317C773.656 118.496 783.296 119.607 793 120.317C793 120.977 793 121.637 793 122.317C775.95 123.132 758.943 123.484 741.875 123.442C740.651 123.44 739.426 123.438 738.165 123.436C729.468 123.418 720.771 123.378 712.074 123.329C710.009 123.317 707.944 123.308 705.879 123.299C623.578 122.924 540.923 119.75 459.207 109.591C457.106 109.331 455.004 109.074 452.902 108.819C338.473 94.7908 338.473 94.7908 320 76.3174C365.207 57.0102 410.764 40.3367 459 30.3174C459.944 30.1202 460.887 29.923 461.859 29.7198C471.796 27.6663 481.755 25.9774 491.812 24.6299C492.695 24.5105 493.577 24.391 494.485 24.2679C509.535 22.3597 524.577 22.131 539.726 22.1321Z" fill="#F0D227"/>
<path d="M268 122.317C273.97 122.807 279.843 123.591 285.75 124.567C295.701 126.193 305.691 127.509 315.688 128.817C316.93 128.98 316.93 128.98 318.198 129.146C329.269 130.594 340.343 132.018 351.43 133.329C355.575 133.831 359.663 134.424 363.762 135.22C373.147 136.975 382.655 138.006 392.125 139.192C394.253 139.46 396.38 139.727 398.508 139.994C401.703 140.396 404.899 140.796 408.095 141.196C413.329 141.85 418.56 142.518 423.788 143.221C445.182 146.1 466.575 147.552 488.115 148.831C494.33 149.204 500.534 149.639 506.738 150.159C537.765 152.617 568.89 152.506 599.993 152.503C604.462 152.503 608.93 152.51 613.398 152.523C638.008 152.597 662.476 152.617 687 150.317C688.004 150.226 689.009 150.134 690.044 150.04C696.579 149.434 703.103 148.739 709.625 148.005C710.591 147.898 711.557 147.792 712.552 147.682C729.373 145.822 746.136 143.631 762.883 141.2C769.937 140.176 777 139.216 784.062 138.255C794.544 136.819 805.012 135.304 815.471 133.712C830.587 131.431 845.699 129.813 860.927 128.512C863.93 128.256 866.933 127.993 869.936 127.729C871.904 127.559 873.872 127.389 875.84 127.22C876.708 127.144 877.576 127.068 878.471 126.989C893.371 125.727 908.165 125.164 923.113 125.185C924.902 125.184 926.691 125.183 928.479 125.182C932.201 125.18 935.923 125.182 939.645 125.187C944.354 125.193 949.063 125.189 953.773 125.183C957.459 125.18 961.146 125.181 964.833 125.184C966.567 125.184 968.3 125.183 970.034 125.181C982.385 125.168 994.67 125.602 1007 126.317C1004.59 128.73 1003.9 128.606 1000.59 128.756C999.202 128.827 999.202 128.827 997.79 128.899C996.781 128.942 995.771 128.984 994.73 129.028C992.557 129.138 990.384 129.247 988.211 129.357C987.064 129.411 985.918 129.466 984.737 129.522C963.771 130.53 942.966 132.075 922.13 134.593C916.947 135.218 911.759 135.767 906.566 136.302C897.526 137.239 888.511 138.321 879.5 139.505C878.714 139.608 877.928 139.71 877.118 139.816C863.269 141.639 849.474 143.758 835.688 146.005C834.301 146.23 834.301 146.23 832.886 146.46C830.24 146.892 827.594 147.328 824.949 147.767C824.176 147.894 823.402 148.02 822.605 148.151C818.047 148.916 813.546 149.828 809.044 150.872C805.618 151.619 802.158 152.083 798.688 152.567C789.794 153.855 780.931 155.311 772.07 156.802C745.11 161.336 718.24 165.789 691 168.317C690.322 168.381 689.644 168.445 688.945 168.51C663.376 170.9 638.03 171.746 612.356 171.582C608.732 171.562 605.108 171.558 601.484 171.555C597.097 171.55 592.711 171.535 588.324 171.521C587.107 171.518 587.107 171.518 585.866 171.515C578.231 171.492 570.654 171.456 563.06 170.56C559.997 170.199 556.93 170.048 553.852 169.888C552.536 169.816 551.219 169.745 549.864 169.671C549.175 169.634 548.486 169.597 547.776 169.559C498.296 166.868 449.386 161.33 400.702 152.02C397.391 151.392 394.078 150.776 390.764 150.166C355.882 143.749 321.269 136.319 286.85 127.756C280.583 126.202 274.297 124.744 268 123.317C268 122.987 268 122.657 268 122.317Z" fill="#F0D227"/>
<path d="M1121 170.317C1131.29 178.999 1141.1 188.391 1149 199.317C1148.67 199.977 1148.34 200.637 1148 201.317C1147.51 200.772 1147.03 200.227 1146.52 199.665C1126.63 178.501 1096.92 169.419 1069 165.317C1067.78 165.124 1066.57 164.931 1065.32 164.732C1058.81 163.959 1052.23 164.073 1045.69 164.067C1044.97 164.067 1044.26 164.066 1043.53 164.065C1032.12 164.083 1021.13 164.68 1010 167.317C1009.23 167.5 1008.46 167.682 1007.67 167.87C998.099 170.21 988.938 173.136 980 177.317C978.894 177.819 977.788 178.32 976.648 178.837C964.95 184.375 954.601 191.631 945 200.317C955.317 177.344 983.575 159.516 1005.98 150.689C1009.63 149.401 1013.26 148.307 1017 147.317C1018.18 147 1019.36 146.683 1020.57 146.357C1055.6 138.385 1093.29 147.687 1121 170.317Z" fill="#F0D227"/>
<path d="M44.7791 100.926C47.9332 100.942 51.0861 100.926 54.2402 100.907C64.8793 100.895 75.3705 101.349 85.9414 102.591C86.9055 102.699 87.8695 102.807 88.8628 102.918C96.329 103.897 103.249 105.906 109.625 110.005C111.815 113.689 111.701 117.154 111 121.317C108.576 126.275 104.725 127.476 99.8413 129.361C74.4867 137.895 35.5828 138.297 10 130.317C13.5704 128.251 17.1376 127.523 21.1602 126.696C21.8588 126.552 22.5573 126.407 23.2771 126.258C25.5377 125.792 27.7999 125.336 30.0625 124.88C30.8269 124.724 31.5913 124.568 32.3788 124.407C43.8738 122.063 55.3764 119.928 67 118.317C66.3893 118.222 65.7786 118.127 65.1494 118.03C52.496 116.053 39.861 113.987 27.25 111.755C25.5586 111.459 25.5586 111.459 23.833 111.157C18.1117 110.134 12.4144 109.023 6.73438 107.79C5.65897 107.557 4.58357 107.324 3.47559 107.083C2.25017 106.704 2.25017 106.704 1 106.317C0.67 105.657 0.34 104.997 0 104.317C14.9754 101.965 29.6221 100.835 44.7791 100.926Z" fill="#F0D227"/>
<path d="M275 157.317C275.621 157.647 276.241 157.977 276.881 158.317C286.921 163.703 294.953 170.303 303 178.317C303.88 179.172 304.761 180.027 305.668 180.907C309.367 184.534 312.906 188.147 316 192.317C315.67 192.977 315.34 193.637 315 194.317C314.175 193.616 313.35 192.915 312.5 192.192C303.895 185.055 295.2 179.842 285 175.317C284.078 174.894 284.078 174.894 283.138 174.462C268.129 167.62 251.425 164.215 234.941 164.114C234.194 164.109 233.447 164.103 232.676 164.097C231.101 164.088 229.525 164.081 227.949 164.077C225.599 164.068 223.25 164.036 220.9 164.005C191.159 163.798 159.914 172.562 138.023 193.435C136 195.317 136 195.317 133 197.317C142.491 176.643 167.492 159.182 188.267 151.477C193.12 149.855 198.029 148.52 203 147.317C203.677 147.134 204.354 146.951 205.052 146.762C228.366 140.843 254.22 145.922 275 157.317Z" fill="#F0D227"/>
<path d="M1130 141.317C1162.31 144.989 1206.44 157.481 1227.83 183.688C1230.18 186.96 1230.41 189.304 1230 193.317C1228.27 195.58 1226.87 196.173 1224.08 196.634C1213.01 197.241 1204.17 191.174 1196 184.317C1194.18 182.55 1192.39 180.757 1190.62 178.942C1173.75 161.691 1152.21 151.072 1130 142.317C1130 141.987 1130 141.657 1130 141.317Z" fill="#F0D227"/>
<path d="M167 69.3174C167 70.3074 167 71.2974 167 72.3174C166.451 72.3712 165.903 72.4249 165.337 72.4803C132.115 75.716 132.115 75.716 98.9375 79.3799C86.8633 80.7955 74.7806 82.0956 62.6829 83.2949C60.8783 83.474 59.0738 83.6548 57.2695 83.8372C48.4893 84.7223 39.8373 85.5707 31 85.3174C31 84.9874 31 84.6574 31 84.3174C47.8292 82.1407 64.6656 80.0858 81.5391 78.2823C82.3185 78.1989 83.0979 78.1155 83.9009 78.0296C90.2837 77.3478 96.6673 76.6728 103.051 75.9987C108.631 75.4094 114.21 74.8166 119.789 74.2198C120.931 74.098 120.931 74.098 122.096 73.9737C132.199 72.8925 142.28 71.7088 152.328 70.1836C157.279 69.4519 161.993 69.2028 167 69.3174Z" fill="#F0D227"/>
</svg>
